<svg xmlns="http://www.w3.org/2000/svg" id="Layer_2" viewBox="0 0 577.13 439.25"><defs><style>      .cls-1 {        fill: #f6cd46;      }      .cls-2 {        fill: #757472;      }      .cls-3 {        fill: #747372;      }      .cls-4 {        fill: #c9930a;      }      .cls-5 {        fill: #f2b705;      }    </style></defs><g id="Layer_1-2" data-name="Layer_1"><g><path class="cls-5" d="M492.1,420.23c-6.02.72-12.05,1.45-18.07,2.15-11.15,1.29-22.29,2.68-33.45,3.8-12.82,1.29-25.67,2.41-38.51,3.44-9.04.72-18.1,1.18-27.15,1.71-17.87,1.06-35.75,1.68-53.64,2.12-20.91.52-41.81.46-62.71.14-14.15-.22-28.29-.74-42.42-1.45-18.44-.92-36.87-2.14-55.27-3.72-17.32-1.48-34.6-3.28-51.87-5.25-7.1-.81-14.18-1.85-21.27-2.76-.9-.12-1.82-.08-2.73-.12-.89-.17-1.78-.37-2.67-.5-4.25-.59-8.51-1.11-12.75-1.73-5.89-.86-11.77-1.79-18.05-2.76.46.53.59.75.77.87,6.42,3.96,12.78,8.03,19.28,11.83,4.43,2.59,8.56,5.69,13.26,7.8-3.86,1.46-7.97,1.42-11.97,1.83-11.35,1.15-22.74,1.79-34.16,1.58-12.57-.23-25.1-1.07-37.55-2.91-.31-.05-.62-.15-1.17-.28,3.52-6.16,6.98-12.2,10.41-18.26,4.43-7.82,8.79-15.67,13.29-23.45.81-1.4.23-2.34-.33-3.44-7.35-14.46-14.7-28.92-22.04-43.39-.41-.8-.76-1.63-1.28-2.73,4.01.45,7.7.9,11.4,1.28,12.1,1.25,24.24,1.76,36.4,1.65,2.32-.02,3.25-.69,3.17-3.31-.22-7.74-.03-15.5-.12-23.24-.02-1.79.35-2.17,2.2-1.88,16.34,2.6,32.71,4.95,49.14,6.94,12.13,1.47,24.29,2.73,36.44,4.08.79.09,1.62.31,2.56-.2-2.54-3.93-5.1-7.79-7.56-11.72-15.22-24.37-26.18-50.61-34.19-78.14-5.68-19.52-9.68-39.38-12.34-59.51-1.57-11.87-2.64-23.8-3.29-35.77-.62-11.4-.96-22.79-.82-34.21.21-17.15,1.17-34.26,3.41-51.28.19-1.45.8-1.96,2.03-2.34,31.44-9.72,62.88-19.46,94.31-29.2,28.26-8.76,56.56-17.41,84.74-26.4,5.92-1.89,11.18-2.06,17.24-.15,50.96,16.09,102.02,31.84,153.06,47.68,8.57,2.66,17.13,5.35,25.73,7.92,1.78.53,2.56,1.43,2.78,3.25,1.78,15.05,2.85,30.14,3.16,45.3.28,13.74.15,27.48-.72,41.19-2.88,45.27-11.23,89.36-28.94,131.37-7.68,18.23-17.06,35.53-28.34,51.79-.55.8-1.31,1.5-1.51,2.87,2.53-.17,4.97-.29,7.39-.51,22.28-2.03,44.53-4.32,66.71-7.25,13.44-1.78,26.85-3.71,40.24-5.78,1.63-.25,1.96.1,1.95,1.67-.07,7.91.08,15.83-.1,23.74-.06,2.4.88,3,2.94,3.04,8,.18,15.99-.14,23.97-.59,7.39-.42,14.76-1.1,22.09-2.19.48-.07.98,0,1.47,0,.18,1.06-.43,1.71-.79,2.43-7.43,14.61-14.86,29.22-22.37,43.78-.79,1.52-.44,2.6.31,3.9,7.34,12.86,14.65,25.74,21.96,38.62.45.78.85,1.59,1.36,2.56-9.48,1.37-18.82,2.16-28.2,2.7-13.17.75-26.31.31-39.43-.71-5.38-.42-10.78-.82-16.08-1.96.03-1.28,1.2-1.55,1.98-2.04,7.76-4.8,15.56-9.52,23.33-14.29,2.16-1.32,4.26-2.73,6.39-4.09-.08-.1-.16-.2-.24-.3-10.93,1.59-21.86,3.18-32.78,4.77ZM473.32,370.4c-3.84-2.3-7.68-4.62-11.54-6.89-.88-.52-1.76-1.55-2.9-.61-1.19.98-.11,2.03.18,2.93,1.26,3.87,2.63,7.7,4.05,11.51.29.79.16,2.28,1.77,1.83,1.63-.47,1.01-1.59.65-2.61-1.05-3.02-2.1-6.04-3.22-9.28,1.25.07,1.87.64,2.56,1.06,3.4,2.08,6.81,4.16,10.2,6.26.77.48,1.52.65,2.31.13.97-.64.23-1.37.02-1.98-1.49-4.32-3.02-8.62-4.57-12.91-.29-.81-.44-1.84-1.85-1.31-1.37.52-.86,1.32-.57,2.18,1.06,3.14,2.11,6.29,3.17,9.43-.09.09-.18.18-.27.27ZM362.03,212.48c.55-42.57-34.24-80.02-79.79-79.89-44.56.13-79.56,35.81-79.64,79.66-.08,43.92,35.17,79.81,79.67,79.9,45.8.1,80.3-37.73,79.76-79.68ZM300.25,365.22c.56-1.41-.25-2.3-.73-3.21-3.26-6.2-6.87-12.19-10.93-17.89-1.08-1.51-1.1-2.28.5-3.54,14.04-10.96,29.59-19.22,46.13-25.58,24.37-9.37,49.65-14.87,75.7-16.78,5.95-.44,5.95-.41,7.81-6.16.15-.48.32-.95.48-1.42,2.47-7.59,4.97-15.18,7.4-22.78.3-.92,1.37-2.33-1.04-2.25-6.73.23-13.45.39-20.18,1.11-14.71,1.57-29.02,4.78-42.92,9.8-13.37,4.83-25.93,11.26-37.72,19.2-15.6,10.51-29.09,23.28-40.83,37.93-1.09,1.36-1.58,1.87-2.99.11-11.45-14.45-24.71-27-39.95-37.41-19.28-13.17-40.36-22.06-63.25-26.75-12.6-2.58-25.29-3.97-38.14-3.94-1.75,0-2.14.42-1.57,2.12,3.14,9.38,6.23,18.79,9.27,28.21.43,1.32,1.06,1.8,2.47,1.88,8.22.45,16.42,1.28,24.54,2.57,20.09,3.21,39.75,8.15,58.62,15.9,15.39,6.32,29.94,14.13,43.05,24.49,1.26,1,1.45,1.53.46,2.91-4.52,6.3-8.44,12.97-12.03,19.85-.54,1.04-1.31,2.05-1.37,3.89,5.49-7.61,11.53-14.01,17.96-20.06,1.09-1.02,1.75-1.12,2.84-.03,3.64,3.66,7.47,7.13,10.76,11.13,1.83,2.23,3.72,4.4,5.67,6.69ZM338.4,108.12c-.07,6.85,2.64,10.6,8.33,12.11,3.85,1.01,7.75,1.89,11.68,2.53,7.94,1.29,12.56-1.51,14.26-9.12,3.38-15.15,6.55-30.35,9.59-45.58,1.33-6.67-1.78-11.4-8.34-13.24-3.51-.99-7.09-1.8-10.69-2.4-9.29-1.56-13.48,1.26-15.54,10.54-2.18,9.81-4.22,19.64-6.2,29.49-1.11,5.53-2.65,10.98-3.09,15.67ZM264.56,66.46c0,3.78.03,6.95,0,10.11-.03,2.46.92,3.99,3.44,4.76,5.88,1.79,11.68,3.86,17.55,5.7,1.52.48,2.19,1.17,2.09,2.81-.13,2.07-.03,4.16-.03,6.24,0,6.82-.05,6.87-6.8,6.76-3.13-.05-4.14-1-4.28-4.19-.08-1.74-.05-3.5-.01-5.24.04-1.46-.57-2.14-2.07-2.12-2.5.04-5,.08-7.49-.01-1.78-.06-2.38.83-2.38,2.42,0,2.66-.14,5.34.04,7.99.6,9.14,4.34,12.63,13.44,12.67,3.41.02,6.83.05,10.24-.05,6.79-.19,11.05-4.38,11.17-11.16.12-6.74-.07-13.49.13-20.23.09-2.89-1.15-4.24-3.7-5.04-5.79-1.81-11.54-3.76-17.33-5.58-1.48-.46-2.21-1.16-2.09-2.82.14-1.99.03-3.99.03-5.99,0-7.33.53-7.82,7.86-7.27.08,0,.17.01.25.02,1.92.08,2.9,1.11,2.94,3,.05,2,.02,4,.06,5.99.03,1.65.66,2.66,2.55,2.59,2.41-.09,4.83-.05,7.24-.01,1.45.02,2.14-.59,2.12-2.09-.05-3.66.1-7.34-.12-10.99-.34-5.54-4.23-9.38-9.71-9.95-4.98-.52-9.95-.51-14.93,0-5.52.56-9.24,4.34-9.88,9.83-.48,4.16-.2,8.31-.32,11.85ZM212.16,50.24c-10.24,2.18-20.48,4.35-30.72,6.53-1.58.34-1.5,1.38-1.22,2.69,2.32,10.97,4.58,21.96,6.87,32.94,2.12,10.17,4.26,20.33,6.41,30.49.28,1.31.52,2.62,2.55,2.18,9.99-2.15,20-4.21,30.01-6.27,1.53-.32,2.12-1.06,1.73-2.64-.53-2.18-1.02-4.37-1.38-6.58-.34-2.04-1.33-2.5-3.3-2.05-6.08,1.37-12.2,2.52-18.28,3.9-1.44.32-1.85-.04-2.11-1.38-.9-4.65-1.84-9.29-2.9-13.91-.3-1.31-.06-1.67,1.27-1.93,4.57-.86,9.1-1.93,13.66-2.86,1.73-.35,2.43-1.13,1.93-2.97-.54-2-.94-4.05-1.26-6.1-.33-2.11-1.37-2.81-3.46-2.32-4.13.95-8.31,1.69-12.42,2.71-1.93.48-2.7-.04-3.05-1.93-.73-3.92-1.49-7.84-2.46-11.71-.59-2.34.14-3.23,2.44-3.65,5.8-1.08,11.56-2.38,17.34-3.54,1.38-.28,2.42-.7,2.05-2.42-.54-2.52-1.03-5.05-1.57-7.57-.24-1.13-.86-1.79-2.14-1.61ZM275.06,406c-1.18-1.42-1.92-2.28-2.62-3.17-2.33-2.93-4.65-5.87-6.97-8.81-.55-.7-1.22-1.22-2.14-.92-.96.31-.72,1.2-.73,1.92-.04,4.58-.07,9.16-.09,13.74,0,.92-.16,1.91,1.29,1.88,1.47-.03,1.2-1.1,1.2-1.97.02-3.35,0-6.71,0-10.09,1.27.07,1.4.63,1.69.99,2.69,3.39,5.37,6.78,8.05,10.18.56.71,1.22,1.18,2.15.86.87-.3.56-1.11.58-1.72.13-4.57.24-9.15.33-13.73.02-.89.21-1.87-1.26-1.92-1.57-.05-1.48.93-1.48,1.97,0,3.37,0,6.74,0,10.77ZM425.6,386.3c-1.65-1.21-2.7-1.98-3.75-2.75-2.81-2.08-5.62-4.16-8.42-6.24-.72-.54-1.49-.72-2.35-.41-.63.22-.56.71-.42,1.23,1.28,4.9,2.55,9.81,3.81,14.72.18.7.55,1.01,1.24.85.68-.16,1.33-.41,1.21-1.29-.09-.65-.28-1.3-.44-1.94-.74-2.93-1.48-5.87-2.38-9.43,1.33.92,2.09,1.41,2.81,1.95,3.14,2.33,6.28,4.66,9.41,7.01.64.48,1.23.76,2.04.36.99-.49.62-1.29.46-1.95-1.11-4.43-2.25-8.86-3.43-13.27-.21-.78-.16-1.95-1.65-1.59-1.56.38-1.07,1.33-.81,2.3.85,3.26,1.67,6.52,2.68,10.48ZM302.01,401.73c.02-4.49-2.44-7.52-6.86-8.49-2.82-.62-5.62-.23-8.44-.06-1.35.08-1.75.61-1.62,1.84.49,4.64.36,9.31.42,13.97.02,1.32.52,1.77,1.79,1.67,2.57-.2,5.17-.15,7.71-.53,4.28-.65,6.98-4.03,7-8.4ZM130.51,380.57c-.03-4.94-4.19-8.78-9.5-8.78-5.02,0-9.04,4.07-8.95,9.05.09,4.77,4.54,8.86,9.64,8.87,4.97.01,8.84-4,8.81-9.14ZM344.18,406.41c-1.21-1.43-2.18-2.65-3.25-3.79-.8-.85-1.17-1.39.08-2.3,2.08-1.5,2.33-3.8,1.71-6.08-.62-2.27-2.28-3.55-4.62-4.02-2.6-.52-5.11.26-7.66.35-1.81.06-2.15.94-1.95,2.55.55,4.36.97,8.74,1.46,13.11.09.83-.25,2.01,1.29,1.85,1.3-.13,1.23-1.05,1.22-2.02-.03-3.67.35-3.94,4.03-3.9,1.37.02,1.76,1.02,2.54,1.71,1.37,1.22,2.08,3.69,5.15,2.52ZM397.03,397.8c5.44,0,9.46-3.77,9.44-8.84-.02-5.04-3.98-9.14-8.73-9.02-5.43.13-9.77,4.19-9.72,9.09.06,4.94,4,8.78,9.01,8.77ZM486.69,371.19c2.87-1.15,6.03-2.43,9.2-3.68.81-.32,1.57-.48,1.07-1.7-.55-1.37-1.38-.57-2.02-.33-2.03.74-4.07,1.49-6.01,2.42-1.48.71-2.25.27-2.49-1.18-.22-1.34-2.49-2.94.44-3.99,1.72-.61,3.4-1.34,5.1-2.02.68-.28,1.13-.7.8-1.53-.34-.84-.88-.8-1.6-.49-1.14.49-2.33.89-3.48,1.36-4.1,1.66-3.09,1.69-4.78-2.07-.49-1.09-.34-1.59.82-2,2.11-.75,4.16-1.69,6.26-2.48.87-.33,1.48-.57,1-1.73-.49-1.2-1.23-.58-1.82-.36-2.8,1.07-5.56,2.23-8.35,3.3-1.11.43-1.6.92-1.06,2.22,1.81,4.38,3.5,8.8,5.25,13.21.25.62.48,1.29,1.69,1.07ZM68.38,370.68c-.06-.84-.76-.83-1.27-1.04-2.08-.85-4.12-1.81-6.26-2.49-2.2-.7-1.17-2-.71-3.1.49-1.17.59-3.05,2.79-2.09,1.68.73,3.41,1.33,5.09,2.05.86.37,1.44.27,1.77-.64.35-.96-.43-1.14-1.01-1.38-1.61-.67-3.22-1.38-4.87-1.92-2.4-.78-1.21-2.25-.79-3.58.43-1.36,1.03-2.19,2.71-1.38,1.87.9,3.87,1.52,5.8,2.28.7.27,1.44.73,1.8-.41.3-.96-.32-1.36-1.06-1.66-2.78-1.11-5.56-2.22-8.34-3.34-1.16-.47-1.84-.15-2.3,1.05-1.7,4.43-3.45,8.83-5.21,13.23-.3.76-.52,1.36.52,1.76,3.26,1.25,6.51,2.55,9.74,3.86,1.34.54,1.26-.57,1.59-1.2ZM202.84,401.57q.33-3.24,3.21-2.89c1.48.18,2.97.36,4.45.52.7.07,1.34.04,1.42-.92.07-.86-.39-1.22-1.14-1.33-1.31-.19-2.64-.3-3.95-.5-3.38-.52-3.32-.52-2.96-3.92.13-1.26.36-1.71,1.79-1.44,2.2.41,4.45.51,6.68.72.66.06,1.38.13,1.54-.81.19-1.11-.57-1.18-1.36-1.28-3.13-.41-6.25-.83-9.37-1.27-1.11-.16-1.49.43-1.6,1.4-.54,4.78-1.04,9.58-1.67,14.35-.17,1.27.19,1.55,1.35,1.66,3.14.32,6.26.76,9.39,1.19.87.12,1.69.36,1.8-.95.1-1.28-.8-1.21-1.64-1.3-1.98-.23-3.95-.57-5.93-.7-1.88-.12-2.81-.74-2.01-2.51ZM376.35,401.32c-.08-.15-.17-.38-.31-.58-3.06-4.65-6.12-9.3-9.18-13.95-.4-.61-.86-.98-1.65-.74-.79.24-1.5.36-1.78,1.42-1.36,5.22-2.82,10.41-4.24,15.61-.15.53-.53,1.24.22,1.51.72.26,1.59.08,1.95-.68.38-.82.49-1.76.8-2.61.21-.58.15-1.36,1.04-1.54,2.61-.51,5.22-1.18,7.87-1.08,1.62.06,1.82,1.97,2.7,3.02.61.73,1.31.57,2.04.42.33-.07.6-.28.54-.78ZM166.71,399.4c-1.28-5.66-2.46-11.34-3.94-16.94-.31-1.16-1.98-1.8-2.99-.46-3.36,4.43-6.58,8.96-9.83,13.47-.31.43-.85.98.02,1.41.61.3,1.29.58,1.83-.03.61-.68,1.12-1.44,1.65-2.19.4-.56.82-1.13,1.59-.98,2.6.5,5.28.8,7.75,1.69,1.34.48.97,2.45,1.33,3.76.25.89.95,1.07,1.74,1.11.57.03,1.01-.09.86-.84ZM242.9,397.89c.06-1.05.09-2.64.28-4.2.11-.97-.15-1.4-1.15-1.41-.86-.01-1.45.16-1.49,1.19-.12,3.32-.54,6.66-.36,9.96.24,4.42,3.25,6.86,7.68,6.77,4-.08,6.71-2.72,7.03-6.96.22-2.82.34-5.64.48-8.47.04-.88.29-1.91-1.18-1.96-1.51-.05-1.13,1.03-1.28,1.88-.6,3.28.04,6.68-.9,9.91-.7,2.41-2.37,3.42-4.94,3.19-2.5-.22-3.97-1.61-4.14-4.14-.12-1.74-.02-3.49-.02-5.77ZM324.3,408.1c-.06-.15-.1-.32-.18-.46-2.71-5.05-5.37-10.12-8.16-15.13-.69-1.23-2.62-.98-3.15.4-1.98,5.11-3.86,10.25-5.75,15.39-.16.43-.39,1.05.2,1.32.6.27,1.33.33,1.84-.23.26-.29.43-.73.49-1.12.39-2.51,1.84-3.47,4.31-3.16.55.07,1.14-.19,1.72-.25,2.53-.25,5.06-.57,5.87,2.84.27,1.13,1.25,1.17,2.22,1.02.37-.06.61-.21.59-.62ZM81.76,377.26c2.73-.03,4.45-1.16,5.16-3.02.84-2.24-.11-3.89-1.78-5.22-1.43-1.14-2.98-2.11-4.41-3.25-.84-.67-1.17-1.63-.73-2.69.44-1.06,1.34-1.38,2.42-1.38,1.95-.01,3.51.84,4.93,2.07.59.52,1.07,1.39,2.01.39,1.05-1.1.08-1.65-.57-2.19-1.57-1.28-3.4-2.09-5.36-2.52-2.52-.55-4.9.58-5.86,2.68-1,2.16-.41,3.95,1.96,5.79,1.37,1.07,2.8,2.07,4.15,3.17.75.61,1.14,1.46.74,2.45-.43,1.07-1.33,1.4-2.42,1.38-2.49-.03-4.44-1.18-6.12-2.92-.45-.47-.71-1.48-1.7-.56-.88.82-.5,1.5.11,2.12,2.18,2.2,4.77,3.55,7.47,3.7ZM188.09,404.19c3.07-.01,5.31-1.48,5.8-3.66.54-2.42-.58-4.24-3.47-5.6-1.28-.6-2.61-1.09-3.83-1.78-1.02-.58-1.98-1.37-1.58-2.79.38-1.35,1.49-1.65,2.72-1.71,1.71-.08,3.3.3,4.77,1.16.75.44,1.44.92,2.05-.21.66-1.22-.42-1.49-1.05-1.81-2.02-1.03-4.16-1.72-6.47-1.41-2.19.3-4.04,1.22-4.53,3.61-.5,2.45.56,4.18,2.79,5.24,1.65.79,3.31,1.55,4.89,2.46.88.5,1.58,1.29,1.17,2.48-.37,1.05-1.17,1.57-2.26,1.67-2.33.22-4.43-.37-6.33-1.75-.53-.38-1.07-1.22-1.83-.17-.72,1-.1,1.54.61,2.03,2.02,1.42,4.3,2.12,6.55,2.27ZM92.46,374.63c-.08,5.64,5.65,10.26,11.22,8.97.8-.19,2.25-.11,1.98-1.6-.27-1.48-1.34-.93-2.34-.75-2.93.52-5.47-.23-7.25-2.75-1.96-2.79-1.27-6.91,1.41-8.96,2.84-2.16,6.9-1.71,9.42,1.16.69.78,1.22,1.46,2.18.57.93-.86.03-1.51-.46-2.1-2.38-2.89-6.85-4.08-10.43-2.81-3.39,1.2-5.69,4.52-5.74,8.27ZM228.06,408.77c1.59.13,3.12-.48,4.57-1.36.5-.3,1.07-.64.6-1.37-.39-.59-.87-1.03-1.66-.6-.37.2-.73.41-1.11.56-3.81,1.47-7.92-.4-9.11-4.13-1.18-3.71,1.02-7.6,4.84-8.44,2.05-.45,3.97-.07,5.67,1.23.78.6,1.63,1.14,2.33.05.67-1.05-.51-1.38-1.01-1.94-.27-.3-.65-.52-1.02-.72-3.41-1.83-7.84-1.34-10.77,1.18-2.6,2.23-3.63,6.53-2.36,9.84,1.32,3.45,4.84,5.71,9.04,5.7ZM140.6,378.43c.46-1.6-.33-1.7-.93-1.92-1.28-.46-1.39.6-1.57,1.34-1.13,4.6-2.14,9.22-3.34,13.8-.32,1.23.04,1.68,1.11,1.94,2.91.69,5.81,1.39,8.72,2.1.83.2,1.5.08,1.73-.88.28-1.16-.72-1.18-1.35-1.36-1.76-.48-3.53-.96-5.33-1.24-1.81-.28-2.24-.96-1.72-2.79,1.09-3.83,1.91-7.73,2.69-10.98ZM432.36,372.29c1.46,4.85,2.92,9.71,4.38,14.56.36,1.18,1.15.91,1.99.64,2.7-.83,5.42-1.61,8.11-2.47.6-.19,1.69-.08,1.4-1.29-.27-1.13-1.13-1.09-1.98-.85-1.6.45-3.25.8-4.76,1.47-2.3,1.01-3.04,0-3.57-2.08-.87-3.46-1.99-6.86-2.97-10.3-.24-.85-.6-1.34-1.56-1.13-.8.17-1.14.62-1.05,1.45ZM353.28,404.26c-.64-4.94-1.28-9.88-1.9-14.83-.1-.81-.46-1.19-1.3-1.13-.8.06-1.28.4-1.18,1.24.61,5.03,1.23,10.06,1.86,15.08.12.96.74,1.17,1.62,1.04.88-.13,1.08-.65.9-1.41ZM455.8,380.52c-1.42-4.39-2.98-9.28-4.59-14.17-.28-.85-1.04-.69-1.69-.46-.87.3-.75,1.04-.55,1.67,1.47,4.67,2.98,9.33,4.47,13.99.22.7.5,1.23,1.41.9.68-.25,1.23-.53.94-1.92ZM313.2,390.4c2.35.13,3.4-1.59,4.85-3.23-2.98-.66-3.7,1.59-4.85,3.23Z"></path><path class="cls-4" d="M492.1,420.23c10.93-1.59,21.86-3.18,32.78-4.77.08.1.16.2.24.3-2.13,1.37-4.24,2.77-6.39,4.09-7.77,4.77-15.58,9.49-23.33,14.29-.78.48-1.95.76-1.98,2.04-1.38.24-1.42-.63-1.41-1.63.05-4.77.06-9.55.09-14.32Z"></path><path class="cls-4" d="M84.84,435.8c-4.71-2.11-8.83-5.21-13.26-7.8-6.51-3.81-12.87-7.87-19.28-11.83-.19-.12-.31-.34-.77-.87,6.28.96,12.16,1.89,18.05,2.76,4.24.62,8.5,1.15,12.75,1.73.9.12,1.78.33,2.67.5-.05,5.17-.11,10.34-.16,15.51Z"></path><path class="cls-2" d="M362.03,212.48c.54,41.95-33.96,79.77-79.76,79.68-44.5-.1-79.75-35.99-79.67-79.9.08-43.85,35.09-79.54,79.64-79.66,45.54-.13,80.34,37.32,79.79,79.89ZM282.89,244.83c-7.08.06-13.72,1.03-20.23,2.87-.98.28-2.4.16-1.84,2.13,3.29,11.43,8.01,22.2,14.68,32.08.32.47.7,1.13,1.16,1.24,3.77.93,7.58.78,11.37.04.39-.08.74-.63,1.01-1.02,6.67-9.78,11.41-20.45,14.69-31.8.45-1.54.13-2.22-1.49-2.66-6.45-1.76-12.99-2.77-19.36-2.88ZM283.5,179.87c5.36.16,11.78-1.14,18.18-2.66,2.13-.51,2.54-1.41,1.91-3.51-2.91-9.69-7.02-18.81-12.08-27.57-1.98-3.42-4.23-5.52-8.29-5.18-.08,0-.17-.03-.25-.01-2.97.58-6.16-.51-8.42,3.18-5.91,9.64-10.46,19.81-13.68,30.63-.55,1.85.62,1.92,1.71,2.24,6.42,1.87,12.96,2.9,20.92,2.9ZM229.2,208.21c5.33,0,10.65-.03,15.98.02,1.52.02,2.26-.36,2.28-2.07.1-7.75,1.23-15.39,2.71-22.97.25-1.3-.09-1.73-1.15-2.23-7.33-3.48-14.09-7.83-20.03-13.37-.92-.86-1.53-.75-2.2.19-1.31,1.82-2.7,3.59-3.94,5.45-6.56,9.9-10.21,20.82-11.41,32.6-.19,1.86.36,2.47,2.28,2.43,5.16-.13,10.32-.04,15.48-.04ZM335.27,208.21h12.99c5.19,0,5.29-.01,4.66-5.19-1.61-13.12-6.71-24.78-14.87-35.15-.87-1.11-1.39-1.03-2.35-.17-5.92,5.31-12.41,9.78-19.67,13.06-1.41.64-1.74,1.42-1.41,2.9,1.66,7.4,2.41,14.92,2.72,22.48.07,1.68.61,2.12,2.19,2.09,5.24-.08,10.49-.03,15.73-.03ZM229.45,216.73c-5.08,0-10.15,0-15.23,0-2.97,0-3.09.1-2.71,3.13.79,6.2,2.13,12.26,4.37,18.12,2.55,6.66,6.09,12.74,10.43,18.37.64.83,1.2,2.11,2.7.73,5.98-5.49,12.71-9.91,20.08-13.31,1.15-.53,1.27-1.11,1.04-2.32-1.45-7.51-2.6-15.06-2.68-22.73-.02-1.77-.79-2.03-2.28-2.01-5.24.06-10.49.02-15.73.02ZM335.54,216.74c-5.33,0-10.65.05-15.98-.03-1.57-.02-2.15.39-2.22,2.07-.31,7.56-1.07,15.08-2.72,22.47-.33,1.47.14,2.07,1.4,2.66,7.07,3.27,13.48,7.58,19.27,12.76,1.49,1.34,2.15,1.01,3.25-.41,8.5-11.02,13.29-23.49,14.84-37.27.2-1.77-.34-2.32-2.12-2.28-5.24.1-10.48.04-15.73.04ZM282.45,208.21c8,0,15.99-.05,23.98.04,1.9.02,2.69-.39,2.53-2.47-.48-6.38-1.12-12.74-2.27-19.04-.29-1.61-.78-2.03-2.44-1.51-6.15,1.9-12.49,2.78-18.9,3.04-8.45.34-16.77-.67-24.89-3.06-1.74-.51-2.25.03-2.48,1.56-.99,6.32-1.89,12.65-2.1,19.07-.06,1.85.41,2.45,2.32,2.43,8.08-.1,16.16-.04,24.23-.04ZM282.44,216.73c-7.99,0-15.99.07-23.98-.05-2.14-.03-2.66.65-2.56,2.69.3,6.24,1.16,12.4,2.09,18.56.23,1.52.76,2.05,2.5,1.55,6.81-1.99,13.79-2.99,20.89-3.1,7.86-.12,15.57,1.01,23.13,3.12,1.47.41,1.84.05,2.12-1.33,1.24-6.29,1.79-12.65,2.34-19.03.18-2.11-.69-2.47-2.55-2.45-7.99.08-15.98.04-23.98.04ZM300.3,281.41c2.34-.76,4.71-1.46,7.02-2.29,8.39-3.03,15.77-7.78,22.52-13.55.87-.75,1.33-1.37.17-2.36-4.89-4.18-10.09-7.85-15.82-10.8-1.8-.92-2.22-.25-2.68,1.3-1.61,5.42-3.61,10.7-5.87,15.89-1.69,3.88-3.85,7.52-5.34,11.82ZM265.2,281.38c-5.34-9.26-9.27-18.47-12.14-28.14-.46-1.54-1.11-1.46-2.32-.86-5.61,2.8-10.68,6.37-15.49,10.36-1.63,1.36-1.12,2.15.18,3.25,5.49,4.63,11.42,8.58,18,11.49,3.62,1.6,7.29,3.08,11.77,3.9ZM265.24,143.23c-11.92,3.01-21.74,8.49-30.45,16.07-1.14.99-.65,1.61.21,2.37,4.68,4.17,9.85,7.6,15.37,10.56,2,1.07,2.57.21,3.01-1.54.93-3.71,2.34-7.27,3.74-10.82,2.19-5.56,4.88-10.88,8.12-16.64ZM299.96,143.38c.14.56.16.89.3,1.14,4.85,8.58,8.68,17.59,11.46,27.04.41,1.41,1.02,1.39,2.15.84,5.8-2.83,11.03-6.48,15.91-10.67,1.14-.98.98-1.58-.03-2.52-3.26-3-6.81-5.62-10.6-7.87-5.93-3.52-12.17-6.35-19.19-7.96Z"></path><path class="cls-3" d="M300.25,365.22c-1.95-2.3-3.84-4.47-5.67-6.69-3.29-4-7.12-7.47-10.76-11.13-1.09-1.09-1.74-1-2.84.03-6.44,6.05-12.48,12.45-17.96,20.06.06-1.84.83-2.84,1.37-3.89,3.58-6.87,7.51-13.55,12.03-19.85.99-1.38.8-1.92-.46-2.91-13.11-10.36-27.66-18.17-43.05-24.49-18.87-7.75-38.52-12.69-58.62-15.9-8.12-1.3-16.32-2.12-24.54-2.57-1.4-.08-2.04-.56-2.47-1.88-3.04-9.42-6.12-18.82-9.27-28.21-.57-1.7-.18-2.11,1.57-2.12,12.86-.02,25.55,1.36,38.14,3.94,22.89,4.68,43.97,13.58,63.25,26.75,15.24,10.41,28.5,22.96,39.95,37.41,1.4,1.77,1.9,1.26,2.99-.11,11.74-14.65,25.23-27.42,40.83-37.93,11.8-7.95,24.35-14.37,37.72-19.2,13.9-5.02,28.21-8.22,42.92-9.8,6.72-.72,13.44-.88,20.18-1.11,2.41-.08,1.34,1.32,1.04,2.25-2.43,7.6-4.93,15.19-7.4,22.78-.15.47-.32.95-.48,1.42-1.86,5.75-1.86,5.72-7.81,6.16-26.05,1.91-51.33,7.41-75.7,16.78-16.54,6.36-32.09,14.62-46.13,25.58-1.61,1.25-1.58,2.03-.5,3.54,4.06,5.7,7.67,11.69,10.93,17.89.48.91,1.29,1.8.73,3.21Z"></path><path class="cls-3" d="M338.4,108.12c.45-4.69,1.98-10.15,3.09-15.67,1.98-9.85,4.02-19.69,6.2-29.49,2.06-9.28,6.26-12.1,15.54-10.54,3.6.6,7.18,1.41,10.69,2.4,6.55,1.85,9.67,6.57,8.34,13.24-3.04,15.22-6.21,30.43-9.59,45.58-1.7,7.61-6.32,10.41-14.26,9.12-3.93-.64-7.83-1.52-11.68-2.53-5.69-1.5-8.4-5.26-8.33-12.11ZM370.5,69.35c.08-2.92-.55-3.87-2.58-4.43-1.28-.35-2.6-.55-3.9-.83-3.49-.74-4.78.06-5.5,3.52-2.4,11.55-4.79,23.1-7.18,34.66q-1.49,7.19,5.84,8.72c3.48.73,4.53.1,5.28-3.37,1.68-7.8,3.31-15.6,4.95-23.41,1.09-5.2,2.16-10.41,3.08-14.86Z"></path><path class="cls-3" d="M264.56,66.46c.12-3.54-.16-7.69.32-11.85.64-5.49,4.36-9.28,9.88-9.83,4.98-.5,9.95-.52,14.93,0,5.48.58,9.37,4.42,9.71,9.95.22,3.65.07,7.32.12,10.99.02,1.49-.67,2.11-2.12,2.09-2.41-.03-4.83-.07-7.24.01-1.89.07-2.52-.95-2.55-2.59-.04-2-.01-4-.06-5.99-.04-1.89-1.03-2.92-2.94-3-.08,0-.17-.01-.25-.02-7.33-.55-7.86-.06-7.86,7.27,0,2,.11,4-.03,5.99-.12,1.66.62,2.35,2.09,2.82,5.79,1.82,11.53,3.77,17.33,5.58,2.55.8,3.79,2.15,3.7,5.04-.2,6.74,0,13.49-.13,20.23-.12,6.77-4.38,10.97-11.17,11.16-3.41.09-6.83.06-10.24.05-9.11-.04-12.85-3.53-13.44-12.67-.17-2.65-.03-5.33-.04-7.99,0-1.59.6-2.48,2.38-2.42,2.49.09,5,.06,7.49.01,1.5-.03,2.11.65,2.07,2.12-.04,1.75-.07,3.5.01,5.24.15,3.19,1.16,4.14,4.28,4.19,6.75.11,6.8.07,6.8-6.76,0-2.08-.1-4.17.03-6.24.1-1.64-.57-2.33-2.09-2.81-5.87-1.84-11.67-3.91-17.55-5.7-2.52-.77-3.47-2.3-3.44-4.76.04-3.16,0-6.33,0-10.11Z"></path><path class="cls-3" d="M212.16,50.24c1.28-.18,1.9.48,2.14,1.61.53,2.52,1.03,5.05,1.57,7.57.37,1.72-.66,2.14-2.05,2.42-5.78,1.17-11.54,2.47-17.34,3.54-2.29.42-3.02,1.31-2.44,3.65.97,3.86,1.74,7.79,2.46,11.71.35,1.89,1.12,2.41,3.05,1.93,4.11-1.03,8.29-1.76,12.42-2.71,2.09-.48,3.13.21,3.46,2.32.32,2.05.72,4.1,1.26,6.1.5,1.84-.2,2.62-1.93,2.97-4.56.93-9.09,2-13.66,2.86-1.34.25-1.57.61-1.27,1.93,1.06,4.62,2,9.26,2.9,13.91.26,1.34.67,1.7,2.11,1.38,6.08-1.37,12.2-2.52,18.28-3.9,1.98-.45,2.97,0,3.3,2.05.37,2.21.85,4.41,1.38,6.58.39,1.58-.2,2.32-1.73,2.64-10.01,2.06-20.02,4.12-30.01,6.27-2.03.44-2.27-.87-2.55-2.18-2.16-10.16-4.29-20.32-6.41-30.49-2.29-10.98-4.55-21.97-6.87-32.94-.28-1.31-.36-2.35,1.22-2.69,10.24-2.19,20.48-4.36,30.72-6.53Z"></path><path class="cls-2" d="M275.06,406c0-4.03,0-7.4,0-10.77,0-1.03-.09-2.02,1.48-1.97,1.46.05,1.28,1.02,1.26,1.92-.09,4.58-.2,9.15-.33,13.73-.02.61.29,1.42-.58,1.72-.92.32-1.59-.15-2.15-.86-2.68-3.4-5.36-6.79-8.05-10.18-.29-.37-.43-.92-1.69-.99,0,3.38.01,6.73,0,10.09,0,.86.27,1.94-1.2,1.97-1.44.03-1.29-.96-1.29-1.88.03-4.58.05-9.16.09-13.74,0-.71-.23-1.61.73-1.92.92-.3,1.59.22,2.14.92,2.32,2.94,4.64,5.88,6.97,8.81.71.89,1.44,1.75,2.62,3.17Z"></path><path class="cls-2" d="M473.58,370.13c-1.05-3.14-2.1-6.29-3.17-9.43-.29-.86-.8-1.67.57-2.18,1.41-.53,1.55.5,1.85,1.31,1.55,4.3,3.08,8.6,4.57,12.91.21.61.95,1.34-.02,1.98-.8.52-1.54.35-2.31-.13-3.39-2.1-6.8-4.18-10.2-6.26-.68-.42-1.3-.99-2.56-1.06,1.12,3.24,2.17,6.26,3.22,9.28.36,1.02.98,2.14-.65,2.61-1.6.46-1.47-1.04-1.77-1.83-1.42-3.81-2.78-7.65-4.05-11.51-.3-.9-1.37-1.95-.18-2.93,1.13-.93,2.02.1,2.9.61,3.86,2.28,7.69,4.59,11.54,6.89.11.09.29.27.33.25.29-.19.12-.36-.06-.51Z"></path><path class="cls-2" d="M425.6,386.3c-1.01-3.96-1.84-7.22-2.68-10.48-.25-.97-.75-1.92.81-2.3,1.49-.36,1.44.81,1.65,1.59,1.18,4.41,2.32,8.84,3.43,13.27.16.66.53,1.46-.46,1.95-.81.4-1.4.12-2.04-.36-3.13-2.35-6.26-4.68-9.41-7.01-.72-.53-1.47-1.02-2.81-1.95.9,3.56,1.64,6.5,2.38,9.43.16.64.35,1.28.44,1.94.12.88-.53,1.13-1.21,1.29-.7.16-1.07-.15-1.24-.85-1.25-4.91-2.53-9.81-3.81-14.72-.13-.52-.21-1,.42-1.23.85-.3,1.63-.12,2.35.41,2.8,2.09,5.61,4.17,8.42,6.24,1.05.78,2.11,1.55,3.75,2.75Z"></path><path class="cls-2" d="M302.01,401.73c-.02,4.37-2.72,7.76-7,8.4-2.54.38-5.14.33-7.71.53-1.27.1-1.78-.35-1.79-1.67-.06-4.66.07-9.32-.42-13.97-.13-1.23.27-1.76,1.62-1.84,2.82-.18,5.63-.56,8.44.06,4.41.97,6.88,4,6.86,8.49ZM287.92,402.01c.48,1.84-1.1,4.75.81,6,1.68,1.1,4.37.33,6.55-.33,3.26-.99,4.94-4.19,4.13-7.77-.81-3.59-4.48-5.48-10.06-4.56-3.26.54-.67,3.46-1.4,5.13-.15.35-.02.82-.02,1.53Z"></path><path class="cls-2" d="M130.51,380.57c.03,5.14-3.84,9.15-8.81,9.14-5.1-.01-9.55-4.11-9.64-8.87-.1-4.98,3.93-9.05,8.95-9.05,5.32,0,9.48,3.84,9.5,8.78ZM121.32,387.32c3.65.08,6.56-2.65,6.69-6.3.14-3.95-2.6-6.79-6.61-6.85-3.85-.06-6.82,2.76-6.83,6.47,0,3.56,3.06,6.6,6.75,6.68Z"></path><path class="cls-2" d="M344.18,406.41c-3.07,1.17-3.78-1.3-5.15-2.52-.78-.69-1.17-1.69-2.54-1.71-3.68-.04-4.06.23-4.03,3.9,0,.97.08,1.88-1.22,2.02-1.54.16-1.19-1.02-1.29-1.85-.49-4.37-.92-8.75-1.46-13.11-.2-1.61.14-2.49,1.95-2.55,2.55-.08,5.06-.87,7.66-.35,2.34.47,4,1.75,4.62,4.02.62,2.28.37,4.58-1.71,6.08-1.25.9-.88,1.44-.08,2.3,1.07,1.14,2.04,2.36,3.25,3.79ZM331.41,395.52q.33,4.92,3.01,4.74c4.14-.28,6.22-1.83,6.01-4.48-.2-2.57-2.08-3.69-5.84-3.47q-3.38.2-3.18,3.21Z"></path><path class="cls-2" d="M397.03,397.8c-5.01,0-8.95-3.84-9.01-8.77-.06-4.9,4.28-8.96,9.72-9.09,4.75-.11,8.71,3.99,8.73,9.02.02,5.07-4,8.83-9.44,8.84ZM403.98,388.99c-.01-3.83-2.81-6.71-6.53-6.7-3.71,0-6.84,2.97-6.87,6.5-.03,3.73,2.94,6.86,6.49,6.84,3.96-.03,6.92-2.87,6.91-6.63Z"></path><path class="cls-2" d="M486.69,371.19c-1.21.22-1.44-.44-1.69-1.07-1.74-4.4-3.44-8.83-5.25-13.21-.54-1.3-.05-1.79,1.06-2.22,2.79-1.08,5.55-2.24,8.35-3.3.59-.23,1.33-.85,1.82.36.48,1.17-.13,1.41-1,1.73-2.1.79-4.15,1.73-6.26,2.48-1.15.41-1.31.92-.82,2,1.69,3.76.68,3.73,4.78,2.07,1.16-.47,2.34-.87,3.48-1.36.72-.31,1.27-.35,1.6.49.33.83-.12,1.26-.8,1.53-1.69.69-3.38,1.41-5.1,2.02-2.93,1.04-.66,2.65-.44,3.99.24,1.45,1.01,1.89,2.49,1.18,1.95-.93,3.98-1.68,6.01-2.42.65-.24,1.47-1.03,2.02.33.49,1.22-.27,1.38-1.07,1.7-3.17,1.25-6.33,2.53-9.2,3.68Z"></path><path class="cls-2" d="M68.38,370.68c-.33.62-.26,1.74-1.59,1.2-3.24-1.31-6.48-2.61-9.74-3.86-1.04-.4-.83-1-.52-1.76,1.76-4.4,3.51-8.81,5.21-13.23.46-1.2,1.14-1.52,2.3-1.05,2.77,1.13,5.56,2.23,8.34,3.34.75.3,1.37.7,1.06,1.66-.36,1.14-1.09.69-1.8.41-1.94-.75-3.93-1.38-5.8-2.28-1.68-.81-2.28.03-2.71,1.38-.42,1.33-1.61,2.8.79,3.58,1.66.54,3.26,1.25,4.87,1.92.58.24,1.36.42,1.01,1.38-.34.91-.92,1.01-1.77.64-1.68-.72-3.41-1.32-5.09-2.05-2.2-.96-2.3.92-2.79,2.09-.46,1.1-1.5,2.4.71,3.1,2.13.68,4.18,1.64,6.26,2.49.51.21,1.2.2,1.27,1.04Z"></path><path class="cls-2" d="M202.84,401.57c-.8,1.77.13,2.39,2.01,2.51,1.98.13,3.95.47,5.93.7.83.1,1.74.02,1.64,1.3-.1,1.31-.93,1.07-1.8.95-3.12-.43-6.25-.87-9.39-1.19-1.17-.12-1.52-.4-1.35-1.66.64-4.77,1.13-9.56,1.67-14.35.11-.97.49-1.55,1.6-1.4,3.12.44,6.25.86,9.37,1.27.79.1,1.54.17,1.36,1.28-.16.94-.88.87-1.54.81-2.23-.2-4.49-.31-6.68-.72-1.42-.27-1.65.19-1.79,1.44-.36,3.4-.42,3.4,2.96,3.92,1.31.2,2.64.32,3.95.5.74.1,1.21.47,1.14,1.33-.08.96-.72,1-1.42.92-1.49-.16-2.97-.34-4.45-.52q-2.88-.35-3.21,2.89Z"></path><path class="cls-2" d="M376.35,401.32c.05.49-.21.71-.54.78-.73.16-1.43.31-2.04-.42-.88-1.04-1.08-2.96-2.7-3.02-2.65-.1-5.26.58-7.87,1.08-.89.17-.82.96-1.04,1.54-.31.85-.42,1.79-.8,2.61-.36.77-1.23.94-1.95.68-.75-.27-.37-.98-.22-1.51,1.42-5.2,2.89-10.39,4.24-15.61.28-1.06.99-1.18,1.78-1.42.79-.24,1.25.13,1.65.74,3.05,4.65,6.12,9.3,9.18,13.95.13.2.23.43.31.58ZM365.47,388.77c-.46,1.63-.77,2.63-1.03,3.65-1.39,5.48-1.13,5.72,4.44,4.35.99-.24,1.34-.62.78-1.51-1.27-2-2.57-3.98-4.19-6.49Z"></path><path class="cls-2" d="M166.71,399.4c.16.74-.28.86-.86.84-.79-.04-1.5-.22-1.74-1.11-.36-1.31.01-3.28-1.33-3.76-2.47-.89-5.15-1.18-7.75-1.69-.77-.15-1.19.41-1.59.98-.53.75-1.04,1.51-1.65,2.19-.54.61-1.22.34-1.83.03-.87-.44-.33-.99-.02-1.41,3.25-4.51,6.47-9.04,9.83-13.47,1.02-1.34,2.69-.7,2.99.46,1.48,5.6,2.65,11.29,3.94,16.94ZM155.65,391.52c2.08.48,3.69.88,5.31,1.21.92.19,1.76.06,1.52-1.2-.45-2.32-.96-4.63-1.55-7.45-1.9,2.68-3.47,4.89-5.28,7.44Z"></path><path class="cls-2" d="M242.9,397.89c0,2.27-.1,4.03.02,5.77.17,2.53,1.64,3.91,4.14,4.14,2.57.23,4.24-.78,4.94-3.19.94-3.23.31-6.63.9-9.91.15-.84-.22-1.93,1.28-1.88,1.47.05,1.22,1.08,1.18,1.96-.13,2.82-.26,5.65-.48,8.47-.33,4.24-3.03,6.88-7.03,6.96-4.43.09-7.43-2.36-7.68-6.77-.18-3.3.23-6.64.36-9.96.04-1.03.62-1.2,1.49-1.19,1,.02,1.26.44,1.15,1.41-.18,1.57-.21,3.15-.28,4.2Z"></path><path class="cls-2" d="M324.3,408.1c.02.41-.22.56-.59.62-.97.15-1.96.11-2.22-1.02-.8-3.41-3.34-3.09-5.87-2.84-.58.06-1.17.32-1.72.25-2.47-.32-3.92.65-4.31,3.16-.06.39-.23.83-.49,1.12-.51.57-1.24.51-1.84.23-.59-.27-.36-.88-.2-1.32,1.89-5.14,3.77-10.29,5.75-15.39.53-1.38,2.46-1.63,3.15-.4,2.79,5,5.46,10.08,8.16,15.13.08.14.12.31.18.46ZM314.73,394.89c-.99.99-1.1,2.19-1.48,3.26-1.85,5.13-1.84,5.1,3.68,4.68,1.36-.1,1.86-.41,1.11-1.76-1.12-2.01-2.18-4.06-3.31-6.17Z"></path><path class="cls-2" d="M81.76,377.26c-2.7-.15-5.29-1.5-7.47-3.7-.61-.62-1-1.31-.11-2.12.99-.92,1.25.09,1.7.56,1.68,1.73,3.62,2.89,6.12,2.92,1.09.01,1.99-.32,2.42-1.38.4-.98.02-1.83-.74-2.45-1.35-1.1-2.78-2.1-4.15-3.17-2.36-1.84-2.95-3.62-1.96-5.79.96-2.09,3.34-3.23,5.86-2.68,1.96.43,3.79,1.25,5.36,2.52.66.53,1.62,1.09.57,2.19-.95,1-1.42.12-2.01-.39-1.41-1.24-2.98-2.09-4.93-2.07-1.09,0-1.98.32-2.42,1.38-.44,1.06-.11,2.02.73,2.69,1.43,1.14,2.98,2.11,4.41,3.25,1.68,1.34,2.62,2.98,1.78,5.22-.7,1.87-2.43,2.99-5.16,3.02Z"></path><path class="cls-2" d="M188.09,404.19c-2.25-.14-4.53-.85-6.55-2.27-.7-.49-1.33-1.03-.61-2.03.76-1.05,1.3-.21,1.83.17,1.9,1.37,4,1.97,6.33,1.75,1.09-.1,1.89-.62,2.26-1.67.41-1.18-.29-1.98-1.17-2.48-1.58-.9-3.24-1.67-4.89-2.46-2.23-1.07-3.29-2.8-2.79-5.24.49-2.39,2.34-3.31,4.53-3.61,2.3-.31,4.45.37,6.47,1.41.62.32,1.71.59,1.05,1.81-.61,1.13-1.31.65-2.05.21-1.47-.86-3.07-1.24-4.77-1.16-1.24.06-2.34.36-2.72,1.71-.4,1.42.56,2.21,1.58,2.79,1.22.7,2.56,1.18,3.83,1.78,2.89,1.36,4.01,3.19,3.47,5.6-.49,2.18-2.73,3.65-5.8,3.66Z"></path><path class="cls-2" d="M92.46,374.63c.05-3.75,2.36-7.07,5.74-8.27,3.58-1.27,8.05-.08,10.43,2.81.49.59,1.38,1.23.46,2.1-.95.89-1.49.21-2.18-.57-2.52-2.87-6.58-3.32-9.42-1.16-2.68,2.04-3.37,6.16-1.41,8.96,1.77,2.52,4.32,3.27,7.25,2.75,1-.18,2.06-.73,2.34.75.28,1.49-1.17,1.42-1.98,1.6-5.57,1.29-11.3-3.33-11.22-8.97Z"></path><path class="cls-2" d="M228.06,408.77c-4.19,0-7.71-2.25-9.04-5.7-1.27-3.31-.24-7.61,2.36-9.84,2.93-2.52,7.35-3.01,10.77-1.18.36.19.74.42,1.02.72.5.55,1.68.89,1.01,1.94-.7,1.09-1.55.55-2.33-.05-1.69-1.3-3.62-1.68-5.67-1.23-3.82.84-6.02,4.74-4.84,8.44,1.19,3.73,5.3,5.59,9.11,4.13.39-.15.75-.36,1.11-.56.78-.43,1.27,0,1.66.6.47.72-.1,1.06-.6,1.37-1.45.88-2.98,1.49-4.57,1.36Z"></path><path class="cls-2" d="M140.6,378.43c-.78,3.25-1.6,7.16-2.69,10.98-.52,1.83-.09,2.51,1.72,2.79,1.8.28,3.57.76,5.33,1.24.63.17,1.63.19,1.35,1.36-.23.96-.9,1.08-1.73.88-2.9-.7-5.81-1.4-8.72-2.1-1.07-.26-1.43-.71-1.11-1.94,1.19-4.58,2.21-9.2,3.34-13.8.18-.74.29-1.81,1.57-1.34.6.22,1.39.32.93,1.92Z"></path><path class="cls-2" d="M432.36,372.29c-.09-.83.26-1.27,1.05-1.45.97-.21,1.32.28,1.56,1.13.97,3.44,2.1,6.84,2.97,10.3.52,2.08,1.27,3.09,3.57,2.08,1.51-.66,3.16-1.02,4.76-1.47.85-.24,1.7-.28,1.98.85.29,1.21-.8,1.09-1.4,1.29-2.69.87-5.41,1.64-8.11,2.47-.84.26-1.64.54-1.99-.64-1.46-4.85-2.92-9.71-4.38-14.56Z"></path><path class="cls-2" d="M353.28,404.26c.18.76-.02,1.28-.9,1.41-.88.13-1.5-.07-1.62-1.04-.63-5.03-1.25-10.05-1.86-15.08-.1-.85.38-1.19,1.18-1.24.84-.06,1.2.32,1.3,1.13.62,4.94,1.26,9.88,1.9,14.83Z"></path><path class="cls-2" d="M455.8,380.52c.29,1.39-.26,1.67-.94,1.92-.91.33-1.19-.2-1.41-.9-1.49-4.66-3-9.32-4.47-13.99-.2-.63-.33-1.36.55-1.67.65-.23,1.41-.39,1.69.46,1.61,4.88,3.18,9.78,4.59,14.17Z"></path><path class="cls-2" d="M313.2,390.4c1.15-1.64,1.87-3.89,4.85-3.23-1.45,1.64-2.5,3.37-4.85,3.23Z"></path><path class="cls-5" d="M282.89,244.83c6.37.11,12.91,1.13,19.36,2.88,1.62.44,1.94,1.12,1.49,2.66-3.28,11.35-8.02,22.02-14.69,31.8-.27.4-.62.95-1.01,1.02-3.79.74-7.59.89-11.37-.04-.46-.11-.84-.77-1.16-1.24-6.66-9.88-11.38-20.65-14.68-32.08-.57-1.97.86-1.86,1.84-2.13,6.51-1.85,13.14-2.82,20.23-2.87Z"></path><path class="cls-5" d="M283.5,179.87c-7.96,0-14.51-1.02-20.92-2.9-1.09-.32-2.26-.38-1.71-2.24,3.22-10.81,7.77-20.98,13.68-30.63,2.26-3.68,5.45-2.6,8.42-3.18.08-.02.17.02.25.01,4.06-.34,6.32,1.76,8.29,5.18,5.06,8.76,9.17,17.88,12.08,27.57.63,2.1.22,3.01-1.91,3.51-6.4,1.52-12.82,2.82-18.18,2.66Z"></path><path class="cls-5" d="M229.2,208.21c-5.16,0-10.32-.08-15.48.04-1.93.05-2.47-.57-2.28-2.43,1.2-11.79,4.86-22.7,11.41-32.6,1.24-1.87,2.63-3.63,3.94-5.45.67-.94,1.28-1.05,2.2-.19,5.94,5.55,12.7,9.9,20.03,13.37,1.05.5,1.4.93,1.15,2.23-1.48,7.58-2.61,15.23-2.71,22.97-.02,1.72-.76,2.09-2.28,2.07-5.32-.06-10.65-.02-15.98-.02Z"></path><path class="cls-5" d="M335.27,208.21c-5.25,0-10.49-.05-15.73.03-1.58.02-2.13-.41-2.19-2.09-.31-7.56-1.06-15.08-2.72-22.48-.33-1.49,0-2.27,1.41-2.9,7.26-3.28,13.76-7.75,19.67-13.06.96-.86,1.48-.94,2.35.17,8.15,10.37,13.25,22.03,14.87,35.15.64,5.18.54,5.19-4.66,5.19-4.33,0-8.66,0-12.99,0Z"></path><path class="cls-5" d="M229.45,216.73c5.24,0,10.49.04,15.73-.02,1.49-.02,2.26.23,2.28,2.01.08,7.67,1.23,15.22,2.68,22.73.23,1.2.11,1.79-1.04,2.32-7.37,3.4-14.1,7.82-20.08,13.31-1.5,1.37-2.05.1-2.7-.73-4.34-5.63-7.88-11.71-10.43-18.37-2.24-5.86-3.58-11.92-4.37-18.12-.39-3.02-.26-3.12,2.71-3.13,5.08,0,10.15,0,15.23,0Z"></path><path class="cls-5" d="M335.54,216.74c5.24,0,10.49.06,15.73-.04,1.78-.03,2.32.52,2.12,2.28-1.55,13.78-6.34,26.25-14.84,37.27-1.1,1.42-1.75,1.75-3.25.41-5.79-5.18-12.2-9.49-19.27-12.76-1.26-.58-1.73-1.19-1.4-2.66,1.64-7.4,2.41-14.91,2.72-22.47.07-1.68.65-2.09,2.22-2.07,5.32.08,10.65.03,15.98.03Z"></path><path class="cls-5" d="M282.45,208.21c-8.08,0-16.16-.06-24.23.04-1.92.02-2.38-.58-2.32-2.43.21-6.42,1.11-12.74,2.1-19.07.24-1.52.74-2.07,2.48-1.56,8.11,2.39,16.43,3.41,24.89,3.06,6.41-.26,12.75-1.14,18.9-3.04,1.66-.51,2.15-.1,2.44,1.51,1.15,6.31,1.79,12.66,2.27,19.04.16,2.08-.63,2.49-2.53,2.47-7.99-.09-15.99-.04-23.98-.04Z"></path><path class="cls-5" d="M282.44,216.73c7.99,0,15.98.05,23.98-.04,1.86-.02,2.73.34,2.55,2.45-.55,6.37-1.1,12.74-2.34,19.03-.27,1.38-.64,1.74-2.12,1.33-7.56-2.11-15.27-3.24-23.13-3.12-7.1.11-14.08,1.11-20.89,3.1-1.74.51-2.26-.03-2.5-1.55-.93-6.16-1.79-12.33-2.09-18.56-.1-2.05.42-2.73,2.56-2.69,7.99.12,15.98.05,23.98.05Z"></path><path class="cls-5" d="M300.3,281.41c1.49-4.3,3.65-7.93,5.34-11.82,2.26-5.19,4.27-10.47,5.87-15.89.46-1.55.88-2.23,2.68-1.3,5.73,2.95,10.93,6.63,15.82,10.8,1.16.99.7,1.61-.17,2.36-6.76,5.77-14.13,10.52-22.52,13.55-2.31.84-4.68,1.53-7.02,2.29Z"></path><path class="cls-5" d="M265.2,281.38c-4.48-.81-8.15-2.3-11.77-3.9-6.58-2.91-12.51-6.86-18-11.49-1.3-1.1-1.81-1.89-.18-3.25,4.81-3.99,9.88-7.57,15.49-10.36,1.21-.6,1.87-.68,2.32.86,2.86,9.66,6.79,18.88,12.14,28.14Z"></path><path class="cls-5" d="M265.24,143.23c-3.24,5.76-5.93,11.08-8.12,16.64-1.4,3.56-2.81,7.11-3.74,10.82-.44,1.75-1.02,2.6-3.01,1.54-5.52-2.95-10.69-6.39-15.37-10.56-.86-.77-1.34-1.39-.21-2.37,8.71-7.58,18.52-13.06,30.45-16.07Z"></path><path class="cls-5" d="M299.96,143.38c7.02,1.61,13.26,4.44,19.19,7.96,3.79,2.25,7.34,4.87,10.6,7.87,1.01.93,1.17,1.54.03,2.52-4.88,4.2-10.11,7.85-15.91,10.67-1.13.55-1.74.57-2.15-.84-2.78-9.45-6.61-18.46-11.46-27.04-.14-.25-.16-.58-.3-1.14Z"></path><path class="cls-5" d="M370.5,69.35c-.92,4.45-1.99,9.66-3.08,14.86-1.64,7.81-3.27,15.61-4.95,23.41-.75,3.48-1.8,4.1-5.28,3.37q-7.33-1.54-5.84-8.72c2.39-11.55,4.78-23.11,7.18-34.66.72-3.45,2.01-4.26,5.5-3.52,1.3.28,2.62.47,3.9.83,2.03.56,2.65,1.5,2.58,4.43Z"></path><path class="cls-1" d="M473.58,370.13c.18.16.35.33.06.51-.04.03-.21-.16-.33-.25.09-.09.18-.18.27-.27Z"></path><path class="cls-5" d="M287.92,402.01c0-.71-.13-1.18.02-1.53.74-1.67-1.86-4.58,1.4-5.13,5.58-.93,9.24.96,10.06,4.56.81,3.57-.87,6.78-4.13,7.77-2.17.66-4.86,1.43-6.55.33-1.9-1.24-.33-4.16-.81-6Z"></path><path class="cls-5" d="M121.32,387.32c-3.69-.08-6.76-3.12-6.75-6.68.01-3.72,2.98-6.53,6.83-6.47,4.01.06,6.75,2.9,6.61,6.85-.13,3.65-3.03,6.38-6.69,6.3Z"></path><path class="cls-5" d="M331.41,395.52q-.2-3.01,3.18-3.21c3.76-.22,5.64.9,5.84,3.47.2,2.65-1.87,4.2-6.01,4.48q-2.68.18-3.01-4.74Z"></path><path class="cls-5" d="M403.98,388.99c.01,3.76-2.95,6.61-6.91,6.63-3.55.02-6.52-3.1-6.49-6.84.03-3.53,3.16-6.49,6.87-6.5,3.72,0,6.52,2.87,6.53,6.7Z"></path><path class="cls-5" d="M365.47,388.77c1.63,2.51,2.93,4.49,4.19,6.49.57.89.21,1.27-.78,1.51-5.57,1.37-5.83,1.13-4.44-4.35.26-1.02.57-2.03,1.03-3.65Z"></path><path class="cls-5" d="M155.65,391.52c1.81-2.55,3.38-4.76,5.28-7.44.59,2.82,1.11,5.13,1.55,7.45.24,1.26-.6,1.39-1.52,1.2-1.62-.33-3.23-.73-5.31-1.21Z"></path><path class="cls-5" d="M314.73,394.89c1.13,2.11,2.19,4.16,3.31,6.17.75,1.35.25,1.65-1.11,1.76-5.51.42-5.53.45-3.68-4.68.38-1.06.49-2.27,1.48-3.26Z"></path></g></g></svg>