<svg width="1229" height="526" viewBox="0 0 1229 526" fill="none" xmlns="http://www.w3.org/2000/svg">
<g clip-path="url(#clip0_2186_3)">
<path d="M845.64 525.2C780.11 525.2 714.58 525.2 649.04 525.2C638.52 525.2 632 520.19 630.28 510.82C629.11 504.42 632.44 499.56 636.08 494.93C658.3 466.67 680.57 438.44 702.82 410.21C723.08 384.51 743.35 358.83 763.61 333.13C775.51 318.03 787.54 303.03 799.19 287.74C803.91 281.54 809.62 278.86 817.34 278.86C946.42 278.95 1075.49 278.92 1204.56 278.93C1207.29 278.93 1210.06 278.73 1212.76 279.07C1226.74 280.82 1232.7 295.18 1224.08 306.65C1217.31 315.66 1210.19 324.4 1203.23 333.26C1184.85 356.66 1166.51 380.09 1148.07 403.45C1128.71 427.98 1109.25 452.43 1089.86 476.94C1079.01 490.66 1068.2 504.4 1057.44 518.18C1053.64 523.05 1048.73 525.26 1042.6 525.26C976.94 525.23 911.29 525.24 845.63 525.24V525.19L845.64 525.2Z" fill="#1A73E8"/>
<path d="M1012.64 245.9C947.73 245.9 882.82 245.9 817.91 245.9C813.28 245.9 808.8 245.51 804.76 242.73C802.53 241.19 801.15 239.03 799.56 237.03C789.14 223.96 778.8 210.83 768.48 197.69C759.62 186.41 750.87 175.05 741.99 163.78C736.46 156.77 730.75 149.91 725.19 142.91C716.72 132.24 708.31 121.51 699.88 110.8C690.61 99.04 681.33 87.28 672.08 75.51C663.52 64.62 654.99 53.7 646.42 42.81C642.23 37.48 637.78 32.34 633.79 26.86C630.16 21.88 629.18 16.23 631.69 10.38C634.12 4.71002 638.33 1.43002 644.65 0.670025C649.87 0.0400246 655.06 0.150025 660.27 0.150025C785.37 0.130025 910.46 0.140025 1035.56 0.140025C1036.55 0.140025 1037.56 0.220025 1038.54 0.130025C1048.29 -0.769975 1054.98 3.45003 1060.7 11.35C1069.96 24.16 1080.19 36.26 1090 48.67C1096.29 56.63 1102.52 64.64 1108.81 72.6C1120.08 86.85 1131.39 101.07 1142.64 115.33C1156.31 132.65 1169.93 150.01 1183.6 167.34C1192.66 178.82 1201.77 190.25 1210.84 201.72C1215.29 207.35 1219.83 212.92 1224.09 218.69C1228.05 224.07 1229.05 230.16 1226.23 236.29C1223.26 242.73 1217.7 245.61 1210.7 245.79C1208.46 245.85 1206.23 245.9 1203.99 245.9C1140.2 245.9 1076.41 245.9 1012.62 245.9H1012.64Z" fill="#619FEF"/>
<path d="M455.43 163.46C484.15 163.46 512.88 163.4 541.6 163.48C572.81 163.57 604.02 163.72 635.23 164C644.19 164.08 653.03 165.38 661.72 167.69C683.59 173.51 695.99 187.9 700.13 209.88C701.7 218.21 702.5 226.57 702.45 235.06C702.34 252.84 702.49 270.63 702.37 288.41C702.3 299.29 700.64 309.99 696.82 320.18C689.69 339.21 674.66 348.31 655.59 352.09C644.67 354.26 633.63 354.57 622.56 354.56C592.47 354.52 562.37 354.52 532.28 354.27C522.83 354.19 513.51 352.72 504.39 350.02C483.87 343.94 472.24 330.05 468.02 309.39C466.17 300.34 465.4 291.23 465.46 282C465.56 264.59 465.49 247.18 465.51 229.77C465.51 222.51 467.52 220.56 474.85 220.54C482.44 220.53 490.02 220.52 497.61 220.55C505.27 220.58 507.22 222.56 507.23 230.34C507.23 247 507.23 263.67 507.2 280.33C507.2 285.44 507.59 290.51 508.46 295.54C510.76 308.73 519.91 315.73 535.24 316.29C560.47 317.22 585.71 316.55 610.95 316.7C618.53 316.75 626.12 316.62 633.69 316.18C644.59 315.54 653.96 312.02 658.1 300.71C659.77 296.16 660.5 291.29 660.53 286.46C660.66 268.18 660.66 249.9 660.5 231.62C660.46 226.67 659.7 221.68 657.89 217.02C653.7 206.26 644.65 202.58 634.19 202.14C606.48 200.99 578.75 201.74 551.02 201.75C523.55 201.75 496.07 202.3 468.59 201.59C467.22 201.55 465.85 201.56 464.49 201.56C406.16 201.56 347.84 201.56 289.51 201.56C287.9 201.56 286.28 201.7 284.68 201.85C277.72 202.5 274.07 205.32 273 212.13C271.98 218.61 271.86 225.26 273.21 231.75C274.42 237.54 277.85 240.46 283.71 241.16C285.8 241.41 287.93 241.45 290.04 241.45C324.24 241.5 358.44 241.39 392.63 241.64C404.45 241.73 415.46 244.85 424.29 253.42C432.54 261.42 435.88 271.66 436.4 282.66C436.96 294.43 437.49 306.29 436.03 318.04C433.56 337.84 420.97 350.42 401.11 353.55C394.43 354.6 387.73 354.53 381.02 354.53C330.03 354.57 279.04 354.53 228.05 354.56C210.02 354.57 191.99 354.84 173.96 354.79C138.28 354.7 102.59 354.57 66.91 354.24C56.59 354.14 46.43 352.51 36.55 349.21C18.46 343.17 7.73003 330.58 3.27003 312.33C0.94003 302.79 -0.0499698 293.07 0.0400302 283.19C0.18003 266.53 0.15003 249.86 0.0400302 233.2C-0.0199698 223.69 1.16003 214.35 3.46003 205.17C8.77003 183.94 22.83 171.82 43.72 166.94C54.31 164.47 65.08 163.78 75.92 163.77C115.34 163.74 154.77 163.71 194.19 163.72C201.39 163.72 202.61 165 202.61 172.16C202.61 179.75 202.63 187.33 202.57 194.92C202.53 199.82 201.1 201.25 196.14 201.51C194.9 201.57 193.65 201.57 192.41 201.57C154.6 201.57 116.8 201.51 78.99 201.59C73.79 201.6 68.57 201.82 63.39 202.65C50.75 204.67 44.15 210.98 42.06 223.49C41.26 228.27 41.09 233.11 40.91 237.97C40.79 241.08 41.93 241.56 44.71 241.55C88.61 241.47 132.51 241.49 176.41 241.49C182.25 241.49 188.1 241.49 193.94 241.53C199.65 241.57 200.93 242.87 200.95 248.54C200.97 255.13 200.98 261.72 200.95 268.31C200.93 273.1 199.65 274.53 194.95 274.99C193.72 275.11 192.47 275.02 191.22 275.02C142.47 275.02 93.72 275.06 44.97 274.94C41.73 274.94 40.76 275.64 40.91 278.95C41.18 284.91 41.24 290.84 42.51 296.73C44.82 307.46 51.5 313.88 62.34 315.56C68.01 316.44 73.72 316.71 79.43 316.72C107.29 316.8 135.14 316.75 163 316.75C234.75 316.75 306.49 316.75 378.24 316.74C380.35 316.74 382.47 316.59 384.55 316.27C389.72 315.47 393.25 312.37 394.16 307.23C395.47 299.86 395.46 292.38 394.24 285C393.23 278.9 389.13 275.56 382.9 275.18C380.42 275.03 377.93 275.04 375.44 275.04C343.73 275.03 312.02 275.06 280.3 274.99C273.48 274.97 266.65 274.6 260.04 272.6C245.21 268.12 235.62 258.4 232.49 243.24C229.33 227.9 229.42 212.21 231.95 196.89C234.95 178.75 247.62 167.7 265.95 164.77C271.13 163.94 276.34 163.78 281.56 163.78C339.51 163.76 397.47 163.77 455.42 163.77C455.42 163.67 455.42 163.57 455.42 163.47L455.43 163.46Z" fill="#010101"/>
<path d="M389.38 391.5C387.11 391.74 386.07 391.27 387.17 388.88C388.25 386.54 389.03 384.06 389.99 381.66C390.41 380.6 390.99 379.62 392.39 379.78C393.46 379.9 394.75 379.25 395.58 380.14C396.54 381.17 395.52 382.2 395.11 383.17C394.2 385.32 393.23 387.45 392.33 389.61C391.74 391.03 390.87 391.9 389.38 391.5Z" fill="#010101"/>
<path d="M576.24 386.56C576.52 388.74 576.44 390.26 573.36 390.25C570.46 390.25 570.16 388.99 570.21 386.7C570.26 384.46 570.13 382.64 573.42 382.73C576.49 382.81 576.49 384.43 576.24 386.56Z" fill="#010101"/>
<path d="M432.28 386.41C431.81 384.04 432.43 382.85 435.26 382.75C438.79 382.62 438.14 384.83 438.25 386.87C438.35 388.94 438.21 390.22 435.4 390.27C432.21 390.32 431.91 388.85 432.28 386.41Z" fill="#010101"/>
<path d="M17.52 405.77C14.91 405.77 12.28 405.58 9.69997 405.85C8.56997 405.97 6.29997 404.44 6.31997 407.13C6.33997 409.45 6.58997 412.16 9.73997 412.45C12.95 412.74 16.19 412.63 19.42 412.68C21.28 412.71 23.15 412.68 25.01 412.68C29.32 412.7 30.39 414.28 29.4 418.63C29.06 420.09 28.16 419.95 27.21 419.95C21.25 419.95 15.28 420.07 9.31997 419.87C3.83997 419.69 0.599975 416.65 0.249975 411.01C-0.0900255 405.44 -0.100025 399.82 0.249975 394.25C0.599975 388.63 3.86997 385.74 9.48997 385.59C15.33 385.43 21.17 385.65 27.01 385.45C29.92 385.35 29.51 387.15 29.36 388.81C29.22 390.38 30.44 392.74 27.06 392.62C22.47 392.45 17.87 392.57 13.27 392.65C11.79 392.68 10.23 392.73 8.85997 393.2C6.62997 393.97 6.14997 396.12 6.37997 398.09C6.61997 400.15 8.57997 399.18 9.73997 399.2C15.33 399.31 20.93 399.41 26.51 399.19C29.52 399.07 29.16 400.82 29.27 402.74C29.4 404.89 28.88 405.96 26.45 405.81C23.48 405.63 20.49 405.77 17.51 405.76L17.52 405.77Z" fill="#010101"/>
<path d="M193.87 419.96C190.64 419.96 187.38 419.72 184.18 420.03C181.03 420.33 181.13 418.53 181.2 416.43C181.26 414.48 180.77 412.48 184.06 412.63C189.77 412.88 195.49 412.62 201.21 412.73C203.78 412.78 204.74 411.86 204.7 409.26C204.66 406.73 203.81 405.66 201.19 405.75C197.22 405.89 193.24 405.82 189.26 405.77C183.85 405.7 181.86 403.87 181.35 398.53C181.2 396.93 181.11 395.3 181.2 393.7C181.55 387.55 183.65 385.56 189.73 385.54C195.45 385.52 201.17 385.66 206.88 385.46C209.54 385.37 210.33 386.21 210.12 388.8C209.95 390.98 210.37 392.91 206.97 392.71C201.77 392.41 196.53 392.71 191.32 392.61C188.92 392.57 187.55 393.26 187.51 395.93C187.47 398.58 188.71 399.35 191.18 399.29C195.28 399.18 199.39 399.19 203.48 399.33C208.28 399.5 210.11 401.19 210.85 405.92C211.12 407.63 211.24 409.38 211.19 411.11C211 417.76 208.69 419.96 202.08 419.96C199.35 419.96 196.61 419.96 193.88 419.96H193.87Z" fill="#010101"/>
<path d="M503.76 385.62C506.61 385.62 509.47 385.47 512.31 385.65C516.77 385.94 519.43 388.18 520.29 392.57C521.55 399.07 521.43 405.66 520.42 412.15C519.61 417.31 517.06 419.55 511.9 419.81C506.46 420.08 500.98 420.09 495.54 419.81C490.16 419.52 487.14 416.53 486.81 411.05C486.48 405.49 486.48 399.88 486.79 394.32C487.1 388.71 490.31 385.87 495.95 385.61C498.55 385.49 501.16 385.59 503.76 385.59C503.76 385.6 503.76 385.61 503.76 385.62ZM503.46 412.68C510.847 412.68 514.513 409.25 514.46 402.39C514.38 392.75 514.24 392.61 504.73 392.61C496.757 392.61 492.797 396.573 492.85 404.5C492.9 411.82 493.72 412.66 500.86 412.67C501.73 412.67 502.6 412.67 503.47 412.67L503.46 412.68Z" fill="#010101"/>
<path d="M373.13 398.69C373.13 402.79 373.26 406.89 373.1 410.98C372.84 417.57 370.39 419.89 363.89 419.94C359.54 419.98 355.19 420.05 350.85 419.85C345.9 419.62 343.58 417.37 343.31 412.47C343.09 408.39 343.08 404.27 343.32 400.19C343.61 395.33 345.76 393.26 350.58 393.02C355.04 392.81 359.52 392.8 363.99 392.91C366.32 392.97 367.52 392.38 367.18 389.82C367.03 388.72 367.27 387.57 367.13 386.47C366.84 384.07 367.4 382.9 370.23 382.93C372.95 382.96 373.25 384.2 373.19 386.39C373.08 390.49 373.16 394.59 373.16 398.69C373.15 398.69 373.13 398.69 373.12 398.69H373.13ZM359.13 399.09C357.14 399.09 355.15 399.05 353.17 399.1C351.77 399.14 350.19 399.38 349.79 400.89C348.83 404.53 348.42 408.43 349.9 411.85C351.14 414.72 354.45 413.55 356.96 413.68C358.2 413.74 359.44 413.72 360.69 413.71C366.31 413.67 367.08 412.9 367.17 407.21C367.257 401.777 364.583 399.063 359.15 399.07L359.13 399.09Z" fill="#010101"/>
<path d="M456.66 419.95C453.55 419.95 450.44 420.05 447.34 419.92C443.99 419.79 442.1 417.97 441.94 414.55C441.87 413.06 441.84 411.57 441.89 410.08C442.03 405.64 443.49 404.09 448.01 403.94C452.11 403.8 456.22 403.99 460.31 403.82C461.46 403.77 463.66 404.99 463.57 402.28C463.5 400.23 462.26 399.14 460.18 399.13C455.46 399.1 450.72 398.87 446.01 399.16C442.93 399.35 442.21 398.2 442.43 395.44C442.57 393.74 442.65 392.75 444.85 392.82C450.44 393 456.04 392.79 461.63 392.93C467 393.06 469.41 395.37 469.61 400.63C469.81 405.84 469.66 411.07 469.74 416.29C469.78 418.91 468.77 420.16 465.98 420C462.88 419.83 459.77 419.96 456.66 419.96V419.95ZM456.14 408.72C454.28 408.72 452.41 408.75 450.55 408.72C448.79 408.69 447.78 409.23 447.75 411.26C447.71 413.41 448.66 414.14 450.65 414.11C454 414.06 457.37 413.93 460.71 414.16C463.39 414.34 463.63 413.04 463.76 410.86C463.93 407.99 462.04 408.8 460.61 408.74C459.12 408.67 457.63 408.72 456.14 408.74V408.72Z" fill="#010101"/>
<path d="M391.2 419.95C388.09 419.95 384.98 420.04 381.88 419.93C378.2 419.79 376.54 418.09 376.26 414.41C376.2 413.67 376.2 412.92 376.19 412.17C376.13 405.14 377.32 403.91 384.34 403.86C387.82 403.83 391.3 403.96 394.78 403.82C395.88 403.78 397.83 404.83 397.91 402.51C397.97 400.51 396.88 399.2 394.76 399.15C391.78 399.08 388.8 399.09 385.81 399.07C384.07 399.07 382.28 398.81 380.6 399.12C376.84 399.82 376.64 397.73 376.77 394.92C376.84 393.3 377.35 392.8 378.96 392.82C384.8 392.92 390.65 392.75 396.48 392.94C401.24 393.09 403.66 395.34 403.88 400C404.14 405.58 403.98 411.18 404.03 416.77C404.05 419.17 402.84 420.04 400.52 419.96C397.42 419.86 394.31 419.93 391.2 419.94V419.95ZM390.47 408.72C388.61 408.72 386.74 408.75 384.88 408.72C383.12 408.69 382.12 409.23 382.08 411.26C382.04 413.41 383 414.13 384.98 414.11C388.33 414.06 391.7 413.93 395.04 414.15C397.72 414.33 397.96 413.02 398.09 410.85C398.26 407.98 396.37 408.8 394.94 408.73C393.45 408.66 391.96 408.71 390.47 408.73V408.72Z" fill="#010101"/>
<path d="M151.47 419.96C148.49 419.96 145.5 420 142.52 419.93C141.55 419.91 140.43 419.9 139.65 419.43C135.14 416.69 136.74 412.2 136.87 408.31C136.97 405.15 139.46 404 142.37 403.95C146.84 403.88 151.32 403.93 155.79 403.85C156.75 403.83 158.27 404.51 158.4 402.7C158.5 401.27 158.06 400.07 156.46 399.5C155.36 399.11 154.28 399.07 153.17 399.07C148.7 399.07 144.21 398.89 139.75 399.13C136.84 399.29 137.34 397.52 137.29 395.84C137.24 394.17 137.06 392.71 139.65 392.8C145.36 393 151.08 392.78 156.8 392.96C161.84 393.12 164.21 395.52 164.4 400.62C164.59 405.83 164.46 411.06 164.55 416.27C164.59 418.89 163.6 420.14 160.8 419.99C157.7 419.82 154.59 419.95 151.48 419.95L151.47 419.96ZM150.87 408.71C150.87 408.71 150.87 408.73 150.87 408.74C149.13 408.74 147.39 408.81 145.65 408.72C143.74 408.62 142.59 409.1 142.55 411.34C142.51 413.52 143.5 414.14 145.48 414.1C148.71 414.03 151.95 413.98 155.17 414.13C157.41 414.23 158.45 413.83 158.57 411.16C158.7 408.2 157.01 408.72 155.34 408.71C153.85 408.71 152.36 408.71 150.87 408.71Z" fill="#010101"/>
<path d="M230.53 419.89C227.55 419.89 224.56 420.07 221.59 419.85C216.96 419.5 214.6 417.13 214.37 412.48C214.17 408.39 214.14 404.28 214.38 400.2C214.67 395.41 216.9 393.23 221.68 393.04C226.76 392.83 231.86 392.95 236.94 393C240.07 393.03 241.59 394.85 241.99 397.84C243.39 408.25 243.04 408.67 232.64 408.68C229.41 408.68 226.18 408.64 222.96 408.74C222.03 408.77 220.53 407.97 220.31 409.74C220.11 411.35 220.66 412.82 222.36 413.26C223.78 413.62 225.3 413.67 226.77 413.69C230.87 413.74 234.97 413.85 239.06 413.65C241.54 413.53 241.64 414.9 241.56 416.65C241.48 418.31 241.97 420.23 239.07 420.01C236.23 419.8 233.36 419.96 230.51 419.96C230.51 419.94 230.51 419.91 230.51 419.89H230.53ZM228.06 403.79C230.05 403.79 232.04 403.79 234.03 403.79C235.22 403.79 236.35 403.77 236.18 402.08C236.05 400.77 236.43 398.96 234.55 398.81C230.6 398.49 226.61 398.27 222.67 398.98C220.69 399.33 220.16 400.88 220.32 402.63C220.51 404.71 222.2 403.65 223.21 403.76C224.81 403.94 226.44 403.81 228.05 403.8L228.06 403.79Z" fill="#010101"/>
<path d="M631.42 419.92C628.57 419.92 625.71 420.06 622.86 419.89C617.79 419.59 615.4 417.46 615.12 412.68C614.87 408.48 614.86 404.24 615.12 400.04C615.41 395.49 617.66 393.28 622.24 393.07C627.31 392.83 632.4 392.99 637.48 393C640.83 393 642.35 394.91 642.74 398.04C644.03 408.4 643.79 408.68 633.55 408.68C630.32 408.68 627.09 408.59 623.87 408.73C622.89 408.77 621.17 407.77 621.02 409.9C620.91 411.54 621.58 412.89 623.25 413.32C624.43 413.63 625.7 413.69 626.93 413.7C630.78 413.74 634.62 413.7 638.47 413.7C642.05 413.7 643.09 415.19 642.21 418.69C641.85 420.11 640.93 419.93 639.96 419.96C639.84 419.96 639.71 419.96 639.59 419.96C636.86 419.96 634.13 419.96 631.4 419.96V419.92H631.42ZM629.73 398.61V398.51C627.64 398.64 625.53 398.65 623.46 398.94C621.48 399.21 621 400.8 621.03 402.52C621.07 404.71 622.83 403.7 623.78 403.74C627.23 403.87 630.69 403.82 634.14 403.78C635.4 403.77 637.05 404.27 637 402.02C636.96 400.11 636.52 398.59 634.17 398.62C632.69 398.64 631.21 398.62 629.73 398.62V398.61Z" fill="#010101"/>
<path d="M107.48 392.97C109.96 392.97 112.45 392.86 114.93 392.99C119.44 393.22 121.58 394.95 122.2 399.4C122.85 404.07 122.84 408.83 122.18 413.5C121.6 417.61 119.3 419.7 115.17 419.86C110.09 420.06 104.98 420.05 99.9 419.82C95.14 419.61 92.85 417.35 92.58 412.64C92.34 408.56 92.32 404.44 92.56 400.36C92.85 395.27 94.97 393.28 100.02 392.99C102.49 392.84 104.98 392.96 107.47 392.96L107.48 392.97ZM107.19 413.88C116.58 413.88 116.96 413.43 116.52 403.95C116.37 400.66 115.15 398.82 111.58 399.02C109.23 399.15 106.87 399.01 104.51 399.02C99.06 399.07 98.56 399.57 98.44 404.94C98.25 413.7 98.41 413.86 107.19 413.87V413.88Z" fill="#010101"/>
<path d="M45.04 419.96C42.31 419.96 39.57 419.89 36.84 419.98C34.67 420.05 33.06 420.08 33.08 417.01C33.1 414.17 34.31 413.8 36.68 413.87C41.52 414.01 46.37 413.92 51.21 413.94C53.11 413.95 54.66 413.74 54.69 411.22C54.72 408.53 52.94 408.68 51.16 408.68C47.43 408.68 43.71 408.75 39.98 408.64C34.88 408.49 33.15 406.38 33.17 400.6C33.19 395.04 34.88 392.99 39.87 392.89C45.58 392.77 51.3 392.99 57.01 392.8C59.6 392.72 59.69 394.03 59.78 395.98C59.88 398.24 59.09 399.08 56.81 399.01C52.09 398.87 47.37 398.95 42.65 398.91C40.97 398.9 39.17 398.88 39.14 401.15C39.11 403.41 40.9 403.49 42.59 403.49C46.44 403.49 50.29 403.42 54.14 403.5C58.64 403.6 60.37 405.36 60.56 409.88C60.62 411.24 60.58 412.61 60.48 413.98C60.2 417.98 58.41 419.75 54.34 419.9C51.24 420.01 48.13 419.92 45.02 419.92V419.94L45.04 419.96Z" fill="#010101"/>
<path d="M308.34 408.7C308.34 405.97 308.22 403.23 308.37 400.51C308.63 395.63 310.95 393.19 315.76 393C320.84 392.8 325.94 392.79 331.01 392.97C335.77 393.14 338.04 395.33 338.28 400.13C338.57 405.95 338.38 411.79 338.55 417.61C338.61 419.77 337.51 420.02 335.8 419.97C334.17 419.92 332.46 420.24 332.48 417.74C332.51 413.4 332.55 409.06 332.47 404.72C332.38 400.15 331.82 399.6 327.3 399.46C324.7 399.38 322.09 399.35 319.48 399.43C315.19 399.56 314.36 400.43 314.31 404.85C314.26 408.94 314.18 413.05 314.37 417.13C314.48 419.51 313.56 420.05 311.38 420C309.35 419.96 308.08 419.81 308.27 417.25C308.48 414.41 308.32 411.55 308.32 408.69H308.35L308.34 408.7Z" fill="#010101"/>
<path d="M610.87 409.27C610.87 412 610.73 414.75 610.91 417.47C611.07 419.87 609.82 420.03 607.96 420.01C606.16 419.99 604.78 419.91 604.82 417.55C604.9 413.32 604.9 409.09 604.82 404.87C604.74 400.13 604.19 399.59 599.37 399.46C596.64 399.38 593.9 399.5 591.17 399.48C588.05 399.46 586.65 401.01 586.67 404.07C586.7 408.42 586.56 412.78 586.73 417.12C586.82 419.49 585.9 420.05 583.7 420.04C581.59 420.04 580.52 419.71 580.6 417.23C580.78 411.77 580.57 406.29 580.73 400.82C580.89 395.52 583.32 393.11 588.6 392.98C593.57 392.85 598.55 392.84 603.51 393.05C608.16 393.25 610.27 395.33 610.63 399.96C610.87 403.05 610.68 406.17 610.68 409.27C610.74 409.27 610.8 409.27 610.86 409.27H610.87Z" fill="#010101"/>
<path d="M525.52 408.98C525.52 406 525.34 403.01 525.56 400.05C525.91 395.52 528.11 393.26 532.67 393.06C537.99 392.82 543.34 392.82 548.65 393.06C553.01 393.26 555.17 395.44 555.4 399.89C555.7 405.83 555.54 411.79 555.69 417.74C555.75 419.97 554.47 420 552.84 419.99C551.15 419.99 549.6 420.13 549.63 417.67C549.69 413.08 549.55 408.49 549.61 403.9C549.65 400.75 548.15 399.36 545.09 399.42C542.11 399.47 539.13 399.58 536.16 399.49C532.8 399.39 531.44 401.07 531.45 404.23C531.46 408.57 531.33 412.92 531.51 417.25C531.61 419.75 530.44 419.98 528.39 420.03C526.17 420.09 525.24 419.54 525.41 417.17C525.6 414.45 525.45 411.72 525.45 408.99H525.52V408.98Z" fill="#010101"/>
<path d="M303.83 403.76C303.83 406.61 304.01 409.48 303.79 412.32C303.41 417.26 301.16 419.63 296.32 419.86C291.37 420.09 286.39 420.09 281.44 419.86C276.62 419.63 274.24 417.15 274.07 412.27C273.87 406.57 274.1 400.86 273.93 395.15C273.85 392.5 275.48 392.91 277.08 392.84C278.91 392.76 280.13 392.99 280.04 395.39C279.87 399.85 280.03 404.32 279.99 408.79C279.97 411.82 281.22 413.43 284.44 413.31C287.41 413.2 290.4 413.18 293.37 413.3C296.6 413.42 297.86 411.73 297.89 408.78C297.93 404.44 298.03 400.09 297.86 395.75C297.77 393.42 298.58 392.73 300.83 392.81C302.82 392.88 304.16 393 303.94 395.59C303.71 398.3 303.89 401.04 303.89 403.77C303.87 403.77 303.86 403.77 303.84 403.77L303.83 403.76Z" fill="#010101"/>
<path d="M260.79 392.87C263.03 392.87 265.27 392.97 267.5 392.84C269.77 392.71 271.14 392.93 271.1 395.9C271.06 398.63 270.17 399.24 267.66 399.12C263.69 398.93 259.7 399.17 255.73 399.06C252.48 398.97 250.99 400.32 250.82 403.63C250.32 413.37 250.59 413.71 260.3 413.7C263.16 413.7 266.02 413.81 268.88 413.7C271.62 413.6 270.93 415.53 270.97 417C271.01 418.42 271.44 420.04 268.96 419.98C263.49 419.86 258.01 420.1 252.55 419.87C247.39 419.65 245.12 417.25 244.91 412.14C244.75 408.29 244.76 404.43 244.91 400.58C245.11 395.54 247.51 393.16 252.59 392.89C255.32 392.74 258.06 392.86 260.8 392.86L260.79 392.87Z" fill="#010101"/>
<path d="M79.21 419.88C76.35 419.88 73.48 420.06 70.64 419.84C66.21 419.5 63.81 417.13 63.59 412.7C63.38 408.49 63.39 404.25 63.61 400.04C63.84 395.57 66.21 393.19 70.66 393.02C76.24 392.81 81.84 393.01 87.42 392.83C90.12 392.75 89.58 394.46 89.63 396.01C89.68 397.7 89.83 399.2 87.27 399.1C82.93 398.94 78.57 399.12 74.23 399.05C70.99 399 69.59 400.45 69.46 403.73C69.08 413.46 69.23 413.69 79.08 413.69C81.44 413.69 83.81 413.79 86.16 413.66C88.48 413.53 89.77 413.89 89.74 416.79C89.71 419.51 88.79 420.21 86.28 420C83.94 419.8 81.56 419.96 79.2 419.96C79.2 419.93 79.2 419.91 79.2 419.88H79.21Z" fill="#010101"/>
<path d="M408.34 409.01C408.34 406.15 408.2 403.29 408.37 400.44C408.66 395.52 410.96 393.22 415.84 393C419.68 392.83 423.54 393.02 427.39 392.84C430.03 392.72 429.71 394.39 429.7 396.01C429.69 397.65 429.91 399.3 427.3 399.11C424.71 398.92 422.08 399.04 419.47 399.09C415.37 399.16 414.38 400.09 414.31 404.12C414.24 408.47 414.15 412.82 414.34 417.16C414.44 419.6 413.44 420.02 411.3 420.02C409.19 420.02 408.05 419.67 408.23 417.2C408.42 414.48 408.27 411.74 408.27 409C408.29 409 408.31 409 408.34 409V409.01Z" fill="#010101"/>
<path d="M565.83 401.46C565.83 406.8 565.72 412.15 565.88 417.48C565.95 419.87 564.79 420.06 562.93 419.99C561.25 419.93 559.78 420.17 559.8 417.62C559.9 406.94 559.91 396.25 559.8 385.57C559.77 382.82 561.37 383.13 563.17 383.02C565.34 382.88 565.92 383.76 565.87 385.81C565.76 391.03 565.83 396.24 565.83 401.46Z" fill="#010101"/>
<path d="M133 401.3C133 406.64 132.85 411.98 133.06 417.31C133.16 419.97 131.84 419.98 129.89 420C127.94 420.02 126.96 419.66 126.98 417.37C127.08 406.82 127.07 396.26 126.98 385.71C126.96 383.54 127.72 382.89 129.82 383.02C131.67 383.13 133.17 382.94 133.07 385.65C132.88 390.86 133.01 396.08 133.01 401.29H132.99L133 401.3Z" fill="#010101"/>
<path d="M576.28 406.53C576.28 410.25 576.18 413.96 576.32 417.67C576.41 419.87 575.26 420.1 573.56 419.96C572.06 419.84 570.22 420.5 570.25 417.8C570.33 410.25 570.35 402.69 570.24 395.14C570.2 392.56 571.78 392.9 573.4 392.84C575.24 392.77 576.45 392.98 576.33 395.38C576.13 399.09 576.28 402.81 576.28 406.52V406.53Z" fill="#010101"/>
<path d="M438.22 406.33C438.22 410.04 438.08 413.77 438.26 417.47C438.38 419.87 437.18 420.07 435.32 419.98C433.69 419.9 432.14 420.22 432.18 417.64C432.3 410.21 432.32 402.78 432.16 395.35C432.1 392.55 433.79 392.93 435.52 392.81C437.6 392.66 438.36 393.41 438.26 395.55C438.1 399.13 438.22 402.73 438.21 406.32L438.22 406.33Z" fill="#010101"/>
</g>
<defs>
<clipPath id="clip0_2186_3">
<rect width="1228.09" height="525.27" fill="white"/>
</clipPath>
</defs>
</svg>
