<?xml version="1.0" encoding="utf-8"?>
<!-- Generator: Adobe Illustrator 24.1.2, SVG Export Plug-In . SVG Version: 6.00 Build 0)  -->
<svg version="1.1" id="Layer_1" xmlns="http://www.w3.org/2000/svg" xmlns:xlink="http://www.w3.org/1999/xlink" x="0px" y="0px"
	 viewBox="0 0 768 768" style="enable-background:new 0 0 768 768;" xml:space="preserve">
<style type="text/css">
	.st0{fill:#1A73E8;}
	.st1{fill:#619FEF;}
</style>
<path class="st0" d="M276.87,721.53c-84.15,0-168.3,0-252.47,0c-13.51,0-21.88-6.43-24.09-18.47c-1.5-8.22,2.77-14.46,7.45-20.41
	c28.53-36.29,57.13-72.54,85.71-108.8c26.02-33,52.05-65.98,78.06-98.98c15.28-19.39,30.73-38.65,45.69-58.29
	c6.06-7.96,13.39-11.4,23.31-11.4c165.76,0.12,331.51,0.08,497.26,0.09c3.51,0,7.06-0.26,10.53,0.18
	c17.95,2.25,25.61,20.69,14.54,35.42c-8.69,11.57-17.84,22.79-26.78,34.17c-23.6,30.05-47.15,60.14-70.84,90.14
	c-24.86,31.5-49.85,62.9-74.75,94.37c-13.93,17.62-27.82,35.26-41.63,52.96c-4.88,6.25-11.19,9.09-19.06,9.09
	c-84.32-0.04-168.62-0.03-252.94-0.03v-0.06L276.87,721.53z"/>
<path class="st1" d="M491.32,362.86c-83.36,0-166.71,0-250.07,0c-5.95,0-11.7-0.5-16.89-4.07c-2.86-1.98-4.64-4.75-6.68-7.32
	c-13.38-16.78-26.66-33.65-39.91-50.52c-11.38-14.49-22.61-29.07-34.02-43.55c-7.1-9-14.43-17.81-21.57-26.8
	c-10.88-13.7-21.68-27.48-32.5-41.23c-11.9-15.1-23.82-30.2-35.7-45.32c-10.99-13.98-21.95-28.01-32.95-41.99
	c-5.38-6.84-11.1-13.45-16.22-20.48c-4.66-6.4-5.92-13.65-2.7-21.16c3.12-7.28,8.53-11.49,16.64-12.47
	c6.7-0.81,13.37-0.67,20.06-0.67c160.65-0.03,321.29-0.01,481.94-0.01c1.27,0,2.57,0.1,3.83-0.01c12.52-1.16,21.11,4.26,28.46,14.41
	c11.89,16.45,25.03,31.99,37.63,47.93c8.08,10.22,16.08,20.51,24.16,30.73c14.47,18.3,29,36.56,43.44,54.87
	c17.55,22.24,35.05,44.54,52.6,66.79c11.63,14.74,23.33,29.42,34.98,44.15c5.71,7.23,11.54,14.38,17.02,21.79
	c5.09,6.91,6.37,14.73,2.75,22.6c-3.81,8.27-10.95,11.97-19.94,12.2c-2.88,0.08-5.74,0.14-8.62,0.14c-81.92,0-163.83,0-245.75,0
	H491.32z"/>
</svg>
